<svg id="SvgjsSvg1014" width="100%" height="100%" xmlns="http://www.w3.org/2000/svg" version="1.1" xlink="http://www.w3.org/1999/xlink" xmlns:svgjs="http://svgjs.com/svgjs" viewBox="-487 491 96 100"><defs id="SvgjsDefs1015"></defs><g id="SvgjsG1016" fill="#ff330a"><path d="M-483 591h88c4 0 4 0 4-4s0-4-4-4h-88c-4 0-4 0-4 4s0 4 4 4zm76-16h2c4 0 4 0 4-4v-40c0-4 0-4-4-4h-2c-4 0-4 0-4 4v40c0 4 0 4 4 4zm-22 0h2c4 0 4 0 4-4v-40c0-4 0-4-4-4h-2c-4 0-4 0-4 4v40c0 4 0 4 4 4zm-22 0h2c4 0 4 0 4-4v-40c0-4 0-4-4-4h-2c-4 0-4 0-4 4v40c0 4 0 4 4 4zm-22 0h2c4 0 4 0 4-4v-40c0-4 0-4-4-4h-2c-4 0-4 0-4 4v40c0 4 0 4 4 4zm34-62c-3.3 0-6-2.7-6-6s2.7-6 6-6 6 2.7 6 6-2.7 6-6 6zm-44 6h88c4 0 4 0 4-4v-2c0-2 0-2-4-4l-44-18-44 18c-4 2-4 2-4 4v2c0 4 0 4 4 4z"></path></g></svg>