<svg id="SvgjsSvg1113" width="100%" height="100%" xmlns="http://www.w3.org/2000/svg" version="1.1" xlink="http://www.w3.org/1999/xlink" xmlns:svgjs="http://svgjs.com/svgjs" viewBox="4.63918399810791 6.070972442626953 90.92345428466797 89.18904113769531"><defs id="SvgjsDefs1114"></defs><g id="SvgjsG1115" fill="#ff330a"><path d="M32.588 35.923c-.147-.14-.304-.259-.445-.403a16.216 16.216 0 0 1-4.761-11.488 16.186 16.186 0 0 1 4.761-11.488 16.21 16.21 0 0 1 11.485-4.76 16.23 16.23 0 0 1 11.491 4.76c3.172 3.166 4.754 7.324 4.758 11.487a16.227 16.227 0 0 1-4.758 11.489c-.303.304-.623.575-.945.853.73.103 1.459.21 2.184.328a17.907 17.907 0 0 0 5.234-12.67c0-4.596-1.756-9.199-5.262-12.701a17.902 17.902 0 0 0-12.702-5.259 17.872 17.872 0 0 0-12.698 5.263 17.886 17.886 0 0 0-5.259 12.698 17.848 17.848 0 0 0 4.804 12.188 57.466 57.466 0 0 1 2.113-.297zm21.019-21.872c-5.508-5.509-14.44-5.509-19.957.004-5.509 5.509-5.509 14.443 0 19.952a14.096 14.096 0 0 0 1.962 1.62c4.996-.366 10.263-.208 15.491.36a14.067 14.067 0 0 0 2.506-1.98c5.51-5.509 5.51-14.445-.002-19.956zm41.469 49.693a2.568 2.568 0 0 0-2.041-1.067c-.178-.018-1.912-.152-3.82-1.985-.41-.742-1.469-4.309-3.752-7.847a23.909 23.909 0 0 0-5.82-6.245c.104-1.303.324-2.328.541-3.055.148-.495.289-.856.385-1.075.047-.111.082-.183.102-.225a2.58 2.58 0 0 0-.152-2.773 2.565 2.565 0 0 0-2.59-1.006c-.152.034-1.715.334-3.488 1.342-.975.534-2.121 1.448-2.941 2.737-9.092-2.915-19.834-4.755-30.088-4.759-7.849.009-15.411 1.064-21.741 3.676-2.365.928-4.331 2.041-5.954 3.286.114-.298.19-.605.193-.926.001-.567-.214-1.144-.628-1.548a2.145 2.145 0 0 0-1.545-.625c-.812 0-1.549.394-2.167 1.005a2.284 2.284 0 0 0-.687 1.64c.025.365.098.7.205 1.003-.481.165-.95.268-1.299.251-.348.004-.505-.086-.51-.099 0-.014-.056.013-.074-.366 0-.711-.572-1.288-1.283-1.288-.71 0-1.282.577-1.282 1.288-.02.895.327 1.804 1.001 2.345.663.542 1.439.69 2.148.691.99-.025 1.98-.278 2.875-.67.043.035.077.075.115.11-2.375 2.896-3.364 6.182-3.282 9.376.101 6.875 3.486 13.431 3.355 17.255 0 .669-.086 1.217-.237 1.673-.691 2.073-.994 4.041-.994 5.851.078 8.649 6.54 12.794 6.775 12.974a2.574 2.574 0 0 0 3.283-.407 2.578 2.578 0 0 0 .163-3.307s-.085-.111-.263-.377c-.563-.758-1.572-2.808-1.501-3.69.001-.264.047-.37.077-.42l.003-.008c1.612-2.917 2.839-4.693 3.661-5.558.882-.887.963-.733 1.021-.765.12-.051 1.008.261 2.473.908 1.458.604 3.506 1.327 6.166 1.463.636.03 1.269.043 1.904.043 7.118-.021 14.873-1.752 19.889-1.726 1.504-.005 2.717.159 3.457.428.51.194.77.357.934.546.297 2.202 1.357 4.316 2.336 6.413a69.191 69.191 0 0 0 2.23 4.174c.232.398.561.719.965.942l2.852 1.588a2.55 2.55 0 0 0 1.254.325c.859 0 1.701-.432 2.186-1.217a2.574 2.574 0 0 0-.736-3.473s-.053-.031-.234-.186c-.619-.454-1.586-1.716-1.5-2.345l-.037-.384a16.819 16.819 0 0 1-.26-2.853c.012-2.501.648-4.015 1.201-4.938.213-.345.418-.603.578-.782 2.457-.491 10.715-2.33 23.947-7.141A2.578 2.578 0 0 0 94 70.34l1.434-4.281a2.585 2.585 0 0 0-.358-2.315zM58.498 45.002c-5.732-1.069-11.609-1.65-17.086-1.65-5.662 0-10.826.612-15.179 1.776a1.29 1.29 0 0 1-1.573-.911 1.29 1.29 0 0 1 .914-1.575c4.62-1.229 9.995-1.857 15.838-1.857 5.652 0 11.678.593 17.559 1.696a1.285 1.285 0 0 1 1.027 1.497 1.289 1.289 0 0 1-1.5 1.024zm21.648 11.685a1.43 1.43 0 1 1-.002-2.858 1.43 1.43 0 0 1 .002 2.858z"></path></g></svg>