<?xml version="1.0" standalone="no"?>
<!DOCTYPE svg PUBLIC "-//W3C//DTD SVG 1.1//EN" "http://www.w3.org/Graphics/SVG/1.1/DTD/svg11.dtd">
<svg width="100%" height="100%" viewBox="0 0 1837 459" version="1.1" xmlns="http://www.w3.org/2000/svg" xmlns:xlink="http://www.w3.org/1999/xlink" xml:space="preserve" style="fill-rule:evenodd;clip-rule:evenodd;stroke-linejoin:round;stroke-miterlimit:1.41421;">
    <g transform="matrix(1,0,0,1,-32,-1186)">
        <g id="logo_inv" transform="matrix(0.746141,0,0,0.408,8.12348,702.112)">
            <g transform="matrix(1.19652,0,0,1.33551,-27.1979,-405.749)">
                <g transform="matrix(4.66712,0,0,7.64682,-340.477,-30.4108)">
                    <path d="M277.267,205.341L290.72,205.341L290.72,238.51L293.526,238.51L293.526,205.341L306.976,205.341L306.976,202.535L277.267,202.535L277.267,205.341Z" style="fill:white;fill-rule:nonzero;"/>
                </g>
                <g transform="matrix(4.66712,0,0,7.64682,-340.477,-30.4108)">
                    <path d="M224.568,205.274C229.586,205.274 233.668,209.027 233.668,213.639C233.668,219.966 230.255,223.92 224.568,224.216L209.97,224.216L209.97,206.564L215.726,206.041L215.726,206.067L216.39,206.003C216.783,205.966 217.318,205.91 217.935,205.843L218.003,205.836C220.111,205.613 223.297,205.274 224.568,205.274M224.568,202.466C223.162,202.466 220.065,202.794 217.762,203.039L217.762,203.037L207.162,204.001L207.162,238.604L209.97,238.604L209.97,227.023L224.638,227.021C228.591,226.816 231.773,225.23 233.841,222.435C235.539,220.137 236.476,217.013 236.476,213.639C236.476,207.48 231.132,202.466 224.568,202.466" style="fill:white;fill-rule:nonzero;"/>
                </g>
                <g transform="matrix(4.66712,0,0,7.64682,-340.477,-30.4108)">
                    <path d="M326.035,205.908C328.052,205.684 331.097,205.346 332.312,205.346C337.52,205.346 341.751,209.583 341.751,214.788C341.751,217.818 340.284,220.685 337.846,222.438L335.372,224.033L320.02,206.597L324.781,206.046C325.113,206.009 325.521,205.964 325.969,205.915L326.035,205.908ZM332.986,225.571L318.596,234.843L318.596,209.229L332.986,225.571ZM339.373,224.798C342.623,222.503 344.56,218.761 344.56,214.788C344.56,208.033 339.066,202.539 332.312,202.539C330.943,202.539 327.927,202.873 325.728,203.116C325.555,203.136 316.375,204.192 316.375,204.192L315.809,204.258L315.79,238.729L317.747,238.731L334.865,227.701L344.65,238.731L348.272,238.731L337.251,226.166L339.373,224.798Z" style="fill:white;fill-rule:nonzero;"/>
                </g>
                <g transform="matrix(4.66712,0,0,7.64682,-340.477,-30.4108)">
                    <path d="M361.643,232.312C359.383,229.801 358.139,226.525 358.139,223.082L358.139,218.308C358.139,210.701 364.13,204.42 371.513,204.303L371.799,204.293C374.781,204.315 377.686,205.358 380.032,207.242L380.022,207.273L380.673,207.875C383.496,210.479 385.049,214.07 385.049,217.987L385.049,222.764C385.049,230.371 379.054,236.653 371.674,236.766L371.385,236.778C367.937,236.751 364.69,235.408 362.196,232.983L362.209,232.944L361.643,232.312ZM383.255,206.352L382.594,205.743C379.597,202.998 375.731,201.486 371.681,201.486L371.596,201.491L371.517,201.486L370.934,201.499L370.477,201.525L370.47,201.544C361.946,202.2 355.333,209.479 355.333,218.308L355.333,223.082C355.333,226.913 356.632,230.611 358.998,233.538L358.962,233.639L359.538,234.269C362.621,237.647 366.973,239.584 371.481,239.584C371.527,239.584 371.573,239.583 371.619,239.58L371.668,239.583L372.56,239.553L372.57,239.539C381.032,238.958 387.859,231.51 387.859,222.764L387.859,217.987C387.859,213.603 386.213,209.52 383.229,206.444L383.255,206.352Z" style="fill:white;fill-rule:nonzero;"/>
                </g>
                <g transform="matrix(4.66712,0,0,7.64682,-340.477,-30.4108)">
                    <path d="M426.615,234.036L401.65,202.635L398.978,202.635L398.978,238.607L401.785,238.607L401.785,207.317L426.762,238.731L429.421,238.731L429.421,202.724L426.615,202.724L426.615,234.036Z" style="fill:white;fill-rule:nonzero;"/>
                </g>
                <g transform="matrix(4.66712,0,0,7.64682,-340.477,-30.4108)">
                    <rect x="443.881" y="202.723" width="2.807" height="35.973" style="fill:white;fill-rule:nonzero;"/>
                </g>
                <g transform="matrix(4.66712,0,0,7.64682,-340.477,-30.4108)">
                    <path d="M455.959,205.345L469.096,205.345L469.093,238.173L471.902,238.173L471.902,205.345L485.671,205.345L485.671,202.538L455.959,202.538L455.959,205.345Z" style="fill:white;fill-rule:nonzero;"/>
                </g>
                <g transform="matrix(4.66712,0,0,7.64682,-340.477,-30.4108)">
                    <path d="M251.959,222.135L258.849,206.164L271.338,233.621L251.959,222.135ZM258.039,200.943L241.766,238.731L244.807,238.731L250.841,224.735L274.453,238.732L276.746,238.726L259.553,200.943L258.039,200.943Z" style="fill:white;fill-rule:nonzero;"/>
                </g>
                <g transform="matrix(4.66712,0,0,7.64682,-340.477,-30.4108)">
                    <path d="M496.614,207.074L512.087,220.313L496.614,220.313L496.614,207.074ZM496.614,235.87L496.614,223.12L516.926,223.12L516.926,220.76L499.006,205.429L521.378,205.429L521.378,202.621L493.803,202.635L493.803,238.737L524.059,238.731L524.059,235.87L496.614,235.87Z" style="fill:white;fill-rule:nonzero;"/>
                </g>
                <g transform="matrix(4.66712,0,0,7.64682,-340.477,-30.4108)">
                    <clipPath id="_clip1">
                        <path d="M120.472,166.679L140.271,212.731L146.249,226.637L140.656,240.668L157.85,197.54L156.914,195.363L126.191,159.841L120.472,166.679Z"/>
                    </clipPath>
                    <g clip-path="url(#_clip1)">
                        <path d="M124.863,159.074L172.039,186.311L140.656,240.668L93.48,213.431L124.863,159.074Z" style="fill:url(#_Linear2);fill-rule:nonzero;"/>
                    </g>
                </g>
                <g transform="matrix(4.66712,0,0,7.64682,-340.477,-30.4108)">
                    <clipPath id="_clip3">
                        <path d="M140.656,240.668L168.887,228.486L169.978,225.751L157.85,197.54L140.656,240.668ZM146.541,226.062L140.936,240.122L146.541,226.062Z"/>
                    </clipPath>
                    <g clip-path="url(#_clip3)">
                        <path d="M140.656,240.668L140.656,197.54L169.978,197.54L169.978,240.668L140.656,240.668Z" style="fill:url(#_Linear4);fill-rule:nonzero;"/>
                    </g>
                </g>
                <g transform="matrix(4.66712,0,0,7.64682,-340.477,-30.4108)">
                    <clipPath id="_clip5">
                        <path d="M95.804,196.176L126.212,207.124L140.271,212.731L120.472,166.679L95.804,196.176Z"/>
                    </clipPath>
                    <g clip-path="url(#_clip5)">
                        <path d="M88.912,181.396L120.472,166.679L141.647,212.089L110.087,226.806L88.912,181.396Z" style="fill:url(#_Linear6);fill-rule:nonzero;"/>
                    </g>
                </g>
                <g transform="matrix(4.66712,0,0,7.64682,-340.477,-30.4108)">
                    <path d="M140.644,240.696L140.656,240.668L140.644,240.696Z" style="fill:url(#_Linear7);fill-rule:nonzero;"/>
                </g>
                <g transform="matrix(4.66712,0,0,7.64682,-340.477,-30.4108)">
                    <clipPath id="_clip8">
                        <path d="M106.699,261.307L127.339,269.537L157.727,256.474L168.887,228.486L140.656,240.668L140.644,240.696L126.737,246.675L112.677,241.069L106.699,227.162L106.699,261.307Z"/>
                    </clipPath>
                    <g clip-path="url(#_clip8)">
                        <path d="M142.877,282.195L91.914,252.771L121.673,201.227L172.636,230.651L142.877,282.195Z" style="fill:url(#_Linear9);fill-rule:nonzero;"/>
                    </g>
                </g>
                <g transform="matrix(4.66712,0,0,7.64682,-340.477,-30.4108)">
                    <clipPath id="_clip10">
                        <path d="M83.831,226.203L83.553,226.9L96.617,257.287L106.699,261.307L106.699,227.162L112.306,213.102L83.831,226.203Z"/>
                    </clipPath>
                    <g clip-path="url(#_clip10)">
                        <path d="M83.553,261.307L83.553,213.102L112.306,213.102L112.306,261.307L83.553,261.307Z" style="fill:url(#_Linear11);fill-rule:nonzero;"/>
                    </g>
                </g>
                <g transform="matrix(4.66712,0,0,7.64682,-340.477,-30.4108)">
                    <clipPath id="_clip12">
                        <path d="M83.831,226.203L112.306,213.102L126.212,207.124L95.804,196.176L83.831,226.203Z"/>
                    </clipPath>
                    <g clip-path="url(#_clip12)">
                        <path d="M79.809,223.881L98.665,191.22L126.212,207.124L107.355,239.785L79.809,223.881Z" style="fill:url(#_Linear13);fill-rule:nonzero;"/>
                    </g>
                </g>
                <g transform="matrix(4.66712,0,0,7.64682,-340.477,-30.4108)">
                    <path d="M126.737,246.675L140.644,240.696L140.656,240.668L126.737,246.675Z" style="fill:url(#_Linear14);fill-rule:nonzero;"/>
                </g>
                <g transform="matrix(4.66712,0,0,7.64682,-340.477,-30.4108)">
                    <path d="M146.249,226.637L140.271,212.731L146.249,226.637Z" style="fill:url(#_Linear15);fill-rule:nonzero;"/>
                </g>
            </g>
        </g>
    </g>
    <defs>
        <linearGradient id="_Linear2" x1="0" y1="0" x2="1" y2="0" gradientUnits="userSpaceOnUse" gradientTransform="matrix(47.1755,27.2368,-27.2368,47.1755,109.172,186.253)"><stop offset="0%" style="stop-color:rgb(241,90,41);stop-opacity:1"/><stop offset="100%" style="stop-color:rgb(237,28,36);stop-opacity:1"/></linearGradient>
        <linearGradient id="_Linear4" x1="0" y1="0" x2="1" y2="0" gradientUnits="userSpaceOnUse" gradientTransform="matrix(-1.9e-06,-43.1289,43.1289,-1.9e-06,155.317,240.668)"><stop offset="0%" style="stop-color:rgb(237,28,36);stop-opacity:1"/><stop offset="100%" style="stop-color:rgb(241,90,41);stop-opacity:1"/></linearGradient>
        <linearGradient id="_Linear6" x1="0" y1="0" x2="1" y2="0" gradientUnits="userSpaceOnUse" gradientTransform="matrix(31.5604,-14.7168,14.7168,31.5604,99.4995,204.101)"><stop offset="0%" style="stop-color:rgb(241,90,41);stop-opacity:1"/><stop offset="100%" style="stop-color:rgb(237,28,36);stop-opacity:1"/></linearGradient>
        <linearGradient id="_Linear7" x1="0" y1="0" x2="1" y2="0" gradientUnits="userSpaceOnUse" gradientTransform="matrix(0.0117188,0,0,0.0117188,140.644,240.682)"><stop offset="0%" style="stop-color:rgb(241,90,41);stop-opacity:1"/><stop offset="100%" style="stop-color:rgb(237,28,36);stop-opacity:1"/></linearGradient>
        <linearGradient id="_Linear9" x1="0" y1="0" x2="1" y2="0" gradientUnits="userSpaceOnUse" gradientTransform="matrix(-50.9636,-29.4238,29.4238,-50.9636,157.757,256.423)"><stop offset="0%" style="stop-color:rgb(241,90,41);stop-opacity:1"/><stop offset="100%" style="stop-color:rgb(237,28,36);stop-opacity:1"/></linearGradient>
        <linearGradient id="_Linear11" x1="0" y1="0" x2="1" y2="0" gradientUnits="userSpaceOnUse" gradientTransform="matrix(-2.1e-06,-48.2046,48.2046,-2.1e-06,97.9292,261.307)"><stop offset="0%" style="stop-color:rgb(241,90,41);stop-opacity:1"/><stop offset="100%" style="stop-color:rgb(237,28,36);stop-opacity:1"/></linearGradient>
        <linearGradient id="_Linear13" x1="0" y1="0" x2="1" y2="0" gradientUnits="userSpaceOnUse" gradientTransform="matrix(18.8562,-32.6599,32.6599,18.8562,93.5825,231.832)"><stop offset="0%" style="stop-color:rgb(241,90,41);stop-opacity:1"/><stop offset="100%" style="stop-color:rgb(237,28,36);stop-opacity:1"/></linearGradient>
        <linearGradient id="_Linear14" x1="0" y1="0" x2="1" y2="0" gradientUnits="userSpaceOnUse" gradientTransform="matrix(13.9189,0,0,13.9189,126.737,243.671)"><stop offset="0%" style="stop-color:rgb(241,90,41);stop-opacity:1"/><stop offset="100%" style="stop-color:rgb(237,28,36);stop-opacity:1"/></linearGradient>
        <linearGradient id="_Linear15" x1="0" y1="0" x2="1" y2="0" gradientUnits="userSpaceOnUse" gradientTransform="matrix(5.97852,0,0,5.97852,140.271,219.683)"><stop offset="0%" style="stop-color:rgb(241,90,41);stop-opacity:1"/><stop offset="100%" style="stop-color:rgb(237,28,36);stop-opacity:1"/></linearGradient>
    </defs>
</svg>
