<svg id="SvgjsSvg1014" width="100%" height="100%" xmlns="http://www.w3.org/2000/svg" version="1.1" xlink="http://www.w3.org/1999/xlink" xmlns:svgjs="http://svgjs.com/svgjs" viewBox="0.0004597902297973633 0.0002446174621582031 69.36454772949219 89.99676513671875"><defs id="SvgjsDefs1015"></defs><g id="SvgjsG1016" fill="#FFF"><path d="M13.089.001c4.112.044 8.069 1.683 11.447 4.733l.604.54.593-.542C29.174 1.61 33.247-.008 37.508.033c4.5.05 8.678 2.057 10.908 5.249 2.197 3.146 2.906 7.362 1.299 11.55-4.552 11.845-23.709 23.911-24.677 23.909-.975-.008-19.258-13.268-23.874-23.554C-.844 12.696-.124 8.012 2.335 4.809 4.697 1.753 8.712-.042 13.089.001z"></path><path d="M66.485 84.087c-1.022-3.074-2.696-13.259-2.948-13.975-.218-.616-.676-6.566-2.365-9.486-1.452-2.509-4.396-5.47-6.719-7.058-2.751-1.882-5.237-4.212-7.521-6.638-1.881-2-3.528-4.462-4.808-6.894-.476-.906-1.047-1.855-1.362-2.835-.303-.941-1.261-3.084-1.74-3.084-2.383 0-3.474 5.178-3.054 7.401.568 3.029 2.406 4.755 4.14 7.044.95 1.255 2.724 4.021 2.724 4.021-3.17.064-5.253-1.926-8.201-2.908-5.649-1.883-11.159-2.926-15.636-7.168-2.043-1.935-3.988-3.925-6.257-5.599-1.195-.882-4.968-4.47-5.748-1.653l.002.482c.421.532 2.347 2.416 2.292 2.554l.404.423c1.755 2.632 3.84 4.657 5.671 6.945.423.527 1.668 1.911 1.726 2.431 0 0-2.046-2.454-2.151-2.555-.864-.83-1.958-1.438-2.798-2.376-1.6-1.785-3.237-3.657-4.899-5.371-1.918-1.979-3.813-3.204-6.495-2.045l-.114.635c1.654 1.744 3.132 3.678 4.605 5.643l-1.908-1.703c-.512-.281-1.249-.104-1.77.117l-.017.346c1.223 2.835 3.361 5.89 4.822 8.601 1.605 2.982 3.195 4.715 5.971 6.629 1.757 1.213 3.569 2.564 5.18 4.056-1.007-.604-3.192-1.481-4.34-1.93-2.361-.918-3.666-2.62-5.593-4.182-1.316-1.068-4.855-4.002-6.873-2.269l.076.538c2.504 1.764 4.404 4.725 6.476 6.98 2.438 2.655 5.381 4.236 8.484 6.049 3.194 1.869 6.031 4.183 9.496 5.471 1.438.536 2.692 1.347 4.06 2.022 2.208 1.09 4.675 1.599 6.979 2.45 4.064 1.502 7.365 4.264 11.272 6.011l.772.576c.473 1.82 1.258 3.623 1.831 5.451.29.914.63 1.85 1.028 2.763h18.186c-.305-.357-.656-.769-.587-.739-.931-1.731-1.668-3.289-2.293-5.171z"></path></g></svg>